<svg viewBox="0 0 150 40" fill="none" xmlns="http://www.w3.org/2000/svg">
  <!-- Icon -->
  <g transform="translate(0, 4) scale(1.3)">
    <path stroke="#1e40af" stroke-linecap="round" stroke-linejoin="round" stroke-width="2" d="M12 14l9-5-9-5-9 5 9 5z"/>
    <path stroke="#1e40af" stroke-linecap="round" stroke-linejoin="round" stroke-width="2" d="M12 14l6.16-3.422a12.083 12.083 0 01.665 6.479A11.952 11.952 0 0012 20.055a11.952 11.952 0 00-6.824-2.998 12.078 12.078 0 01.665-6.479L12 14z"/>
    <path stroke="#1e40af" stroke-linecap="round" stroke-linejoin="round" stroke-width="2" d="M12 14l9-5-9-5-9 5 9 5zm0 0l6.16-3.422a12.083 12.083 0 01.665 6.479A11.952 11.952 0 0012 20.055a11.952 11.952 0 00-6.824-2.998 12.078 12.078 0 01.665-6.479L12 14zm-4 6v-7.5l4-2.222"/>
  </g>
  <!-- Text -->
  <text x="42" y="28" font-family="Outfit, sans-serif" font-size="20" font-weight="600" fill="#1e40af">Schooly</text>
</svg>
